<?xml version="1.0" encoding="UTF-8" standalone="no"?>
<svg>
<metadata>built for 'CBFr1252' braille table on Sun Dec 07 11:53:09 CET 2014</metadata>
<defs>
<font horiz-adv-x="978" id="Braille-CBFr1252" vert-adv-y="">
<font-face ascent="840" descent="-325" font-family="Braille" font-stretch="normal" font-weight="normal" units-per-em="1024"/>
<missing-glyph/>
<glyph d="M 95 745 m -23, 0 a 23,23 0 1,1 46,0 a 23,23 0 1,1 -46,0 z M 95 420 m -23, 0 a 23,23 0 1,1 46,0 a 23,23 0 1,1 -46,0 z M 95 95 m -23, 0 a 23,23 0 1,1 46,0 a 23,23 0 1,1 -46,0 z M 420 745 m -23, 0 a 23,23 0 1,1 46,0 a 23,23 0 1,1 -46,0 z M 420 420 m -23, 0 a 23,23 0 1,1 46,0 a 23,23 0 1,1 -46,0 z M 420 95 m -23, 0 a 23,23 0 1,1 46,0 a 23,23 0 1,1 -46,0 z " horiz-adv-x="978" unicode=" "/>
<glyph d="M 95 745 m -95, 0 a 95,95 0 1,1 190,0 a 95,95 0 1,1 -190,0 z M 95 420 m -23, 0 a 23,23 0 1,1 46,0 a 23,23 0 1,1 -46,0 z M 95 95 m -23, 0 a 23,23 0 1,1 46,0 a 23,23 0 1,1 -46,0 z M 420 745 m -23, 0 a 23,23 0 1,1 46,0 a 23,23 0 1,1 -46,0 z M 420 420 m -23, 0 a 23,23 0 1,1 46,0 a 23,23 0 1,1 -46,0 z M 420 95 m -23, 0 a 23,23 0 1,1 46,0 a 23,23 0 1,1 -46,0 z " horiz-adv-x="978" unicode="a"/>
<glyph d="M 95 745 m -23, 0 a 23,23 0 1,1 46,0 a 23,23 0 1,1 -46,0 z M 95 420 m -95, 0 a 95,95 0 1,1 190,0 a 95,95 0 1,1 -190,0 z M 95 95 m -23, 0 a 23,23 0 1,1 46,0 a 23,23 0 1,1 -46,0 z M 420 745 m -23, 0 a 23,23 0 1,1 46,0 a 23,23 0 1,1 -46,0 z M 420 420 m -23, 0 a 23,23 0 1,1 46,0 a 23,23 0 1,1 -46,0 z M 420 95 m -23, 0 a 23,23 0 1,1 46,0 a 23,23 0 1,1 -46,0 z " horiz-adv-x="978" unicode=","/>
<glyph d="M 95 745 m -95, 0 a 95,95 0 1,1 190,0 a 95,95 0 1,1 -190,0 z M 95 420 m -95, 0 a 95,95 0 1,1 190,0 a 95,95 0 1,1 -190,0 z M 95 95 m -23, 0 a 23,23 0 1,1 46,0 a 23,23 0 1,1 -46,0 z M 420 745 m -23, 0 a 23,23 0 1,1 46,0 a 23,23 0 1,1 -46,0 z M 420 420 m -23, 0 a 23,23 0 1,1 46,0 a 23,23 0 1,1 -46,0 z M 420 95 m -23, 0 a 23,23 0 1,1 46,0 a 23,23 0 1,1 -46,0 z " horiz-adv-x="978" unicode="b"/>
<glyph d="M 95 745 m -23, 0 a 23,23 0 1,1 46,0 a 23,23 0 1,1 -46,0 z M 95 420 m -23, 0 a 23,23 0 1,1 46,0 a 23,23 0 1,1 -46,0 z M 95 95 m -95, 0 a 95,95 0 1,1 190,0 a 95,95 0 1,1 -190,0 z M 420 745 m -23, 0 a 23,23 0 1,1 46,0 a 23,23 0 1,1 -46,0 z M 420 420 m -23, 0 a 23,23 0 1,1 46,0 a 23,23 0 1,1 -46,0 z M 420 95 m -23, 0 a 23,23 0 1,1 46,0 a 23,23 0 1,1 -46,0 z " horiz-adv-x="978" unicode="."/>
<glyph d="M 95 745 m -95, 0 a 95,95 0 1,1 190,0 a 95,95 0 1,1 -190,0 z M 95 420 m -23, 0 a 23,23 0 1,1 46,0 a 23,23 0 1,1 -46,0 z M 95 95 m -95, 0 a 95,95 0 1,1 190,0 a 95,95 0 1,1 -190,0 z M 420 745 m -23, 0 a 23,23 0 1,1 46,0 a 23,23 0 1,1 -46,0 z M 420 420 m -23, 0 a 23,23 0 1,1 46,0 a 23,23 0 1,1 -46,0 z M 420 95 m -23, 0 a 23,23 0 1,1 46,0 a 23,23 0 1,1 -46,0 z " horiz-adv-x="978" unicode="k"/>
<glyph d="M 95 745 m -23, 0 a 23,23 0 1,1 46,0 a 23,23 0 1,1 -46,0 z M 95 420 m -95, 0 a 95,95 0 1,1 190,0 a 95,95 0 1,1 -190,0 z M 95 95 m -95, 0 a 95,95 0 1,1 190,0 a 95,95 0 1,1 -190,0 z M 420 745 m -23, 0 a 23,23 0 1,1 46,0 a 23,23 0 1,1 -46,0 z M 420 420 m -23, 0 a 23,23 0 1,1 46,0 a 23,23 0 1,1 -46,0 z M 420 95 m -23, 0 a 23,23 0 1,1 46,0 a 23,23 0 1,1 -46,0 z " horiz-adv-x="978" unicode=";"/>
<glyph d="M 95 745 m -95, 0 a 95,95 0 1,1 190,0 a 95,95 0 1,1 -190,0 z M 95 420 m -95, 0 a 95,95 0 1,1 190,0 a 95,95 0 1,1 -190,0 z M 95 95 m -95, 0 a 95,95 0 1,1 190,0 a 95,95 0 1,1 -190,0 z M 420 745 m -23, 0 a 23,23 0 1,1 46,0 a 23,23 0 1,1 -46,0 z M 420 420 m -23, 0 a 23,23 0 1,1 46,0 a 23,23 0 1,1 -46,0 z M 420 95 m -23, 0 a 23,23 0 1,1 46,0 a 23,23 0 1,1 -46,0 z " horiz-adv-x="978" unicode="l"/>
<glyph d="M 95 745 m -23, 0 a 23,23 0 1,1 46,0 a 23,23 0 1,1 -46,0 z M 95 420 m -23, 0 a 23,23 0 1,1 46,0 a 23,23 0 1,1 -46,0 z M 95 95 m -23, 0 a 23,23 0 1,1 46,0 a 23,23 0 1,1 -46,0 z M 420 745 m -95, 0 a 95,95 0 1,1 190,0 a 95,95 0 1,1 -190,0 z M 420 420 m -23, 0 a 23,23 0 1,1 46,0 a 23,23 0 1,1 -46,0 z M 420 95 m -23, 0 a 23,23 0 1,1 46,0 a 23,23 0 1,1 -46,0 z " horiz-adv-x="978" unicode="ˆ"/>
<glyph d="M 95 745 m -95, 0 a 95,95 0 1,1 190,0 a 95,95 0 1,1 -190,0 z M 95 420 m -23, 0 a 23,23 0 1,1 46,0 a 23,23 0 1,1 -46,0 z M 95 95 m -23, 0 a 23,23 0 1,1 46,0 a 23,23 0 1,1 -46,0 z M 420 745 m -95, 0 a 95,95 0 1,1 190,0 a 95,95 0 1,1 -190,0 z M 420 420 m -23, 0 a 23,23 0 1,1 46,0 a 23,23 0 1,1 -46,0 z M 420 95 m -23, 0 a 23,23 0 1,1 46,0 a 23,23 0 1,1 -46,0 z " horiz-adv-x="978" unicode="c"/>
<glyph d="M 95 745 m -23, 0 a 23,23 0 1,1 46,0 a 23,23 0 1,1 -46,0 z M 95 420 m -95, 0 a 95,95 0 1,1 190,0 a 95,95 0 1,1 -190,0 z M 95 95 m -23, 0 a 23,23 0 1,1 46,0 a 23,23 0 1,1 -46,0 z M 420 745 m -95, 0 a 95,95 0 1,1 190,0 a 95,95 0 1,1 -190,0 z M 420 420 m -23, 0 a 23,23 0 1,1 46,0 a 23,23 0 1,1 -46,0 z M 420 95 m -23, 0 a 23,23 0 1,1 46,0 a 23,23 0 1,1 -46,0 z " horiz-adv-x="978" unicode="i"/>
<glyph d="M 95 745 m -95, 0 a 95,95 0 1,1 190,0 a 95,95 0 1,1 -190,0 z M 95 420 m -95, 0 a 95,95 0 1,1 190,0 a 95,95 0 1,1 -190,0 z M 95 95 m -23, 0 a 23,23 0 1,1 46,0 a 23,23 0 1,1 -46,0 z M 420 745 m -95, 0 a 95,95 0 1,1 190,0 a 95,95 0 1,1 -190,0 z M 420 420 m -23, 0 a 23,23 0 1,1 46,0 a 23,23 0 1,1 -46,0 z M 420 95 m -23, 0 a 23,23 0 1,1 46,0 a 23,23 0 1,1 -46,0 z " horiz-adv-x="978" unicode="f"/>
<glyph d="M 95 745 m -23, 0 a 23,23 0 1,1 46,0 a 23,23 0 1,1 -46,0 z M 95 420 m -23, 0 a 23,23 0 1,1 46,0 a 23,23 0 1,1 -46,0 z M 95 95 m -95, 0 a 95,95 0 1,1 190,0 a 95,95 0 1,1 -190,0 z M 420 745 m -95, 0 a 95,95 0 1,1 190,0 a 95,95 0 1,1 -190,0 z M 420 420 m -23, 0 a 23,23 0 1,1 46,0 a 23,23 0 1,1 -46,0 z M 420 95 m -23, 0 a 23,23 0 1,1 46,0 a 23,23 0 1,1 -46,0 z " horiz-adv-x="978" unicode="^"/>
<glyph d="M 95 745 m -95, 0 a 95,95 0 1,1 190,0 a 95,95 0 1,1 -190,0 z M 95 420 m -23, 0 a 23,23 0 1,1 46,0 a 23,23 0 1,1 -46,0 z M 95 95 m -95, 0 a 95,95 0 1,1 190,0 a 95,95 0 1,1 -190,0 z M 420 745 m -95, 0 a 95,95 0 1,1 190,0 a 95,95 0 1,1 -190,0 z M 420 420 m -23, 0 a 23,23 0 1,1 46,0 a 23,23 0 1,1 -46,0 z M 420 95 m -23, 0 a 23,23 0 1,1 46,0 a 23,23 0 1,1 -46,0 z " horiz-adv-x="978" unicode="m"/>
<glyph d="M 95 745 m -23, 0 a 23,23 0 1,1 46,0 a 23,23 0 1,1 -46,0 z M 95 420 m -95, 0 a 95,95 0 1,1 190,0 a 95,95 0 1,1 -190,0 z M 95 95 m -95, 0 a 95,95 0 1,1 190,0 a 95,95 0 1,1 -190,0 z M 420 745 m -95, 0 a 95,95 0 1,1 190,0 a 95,95 0 1,1 -190,0 z M 420 420 m -23, 0 a 23,23 0 1,1 46,0 a 23,23 0 1,1 -46,0 z M 420 95 m -23, 0 a 23,23 0 1,1 46,0 a 23,23 0 1,1 -46,0 z " horiz-adv-x="978" unicode="s"/>
<glyph d="M 95 745 m -95, 0 a 95,95 0 1,1 190,0 a 95,95 0 1,1 -190,0 z M 95 420 m -95, 0 a 95,95 0 1,1 190,0 a 95,95 0 1,1 -190,0 z M 95 95 m -95, 0 a 95,95 0 1,1 190,0 a 95,95 0 1,1 -190,0 z M 420 745 m -95, 0 a 95,95 0 1,1 190,0 a 95,95 0 1,1 -190,0 z M 420 420 m -23, 0 a 23,23 0 1,1 46,0 a 23,23 0 1,1 -46,0 z M 420 95 m -23, 0 a 23,23 0 1,1 46,0 a 23,23 0 1,1 -46,0 z " horiz-adv-x="978" unicode="p"/>
<glyph d="M 95 745 m -23, 0 a 23,23 0 1,1 46,0 a 23,23 0 1,1 -46,0 z M 95 420 m -23, 0 a 23,23 0 1,1 46,0 a 23,23 0 1,1 -46,0 z M 95 95 m -23, 0 a 23,23 0 1,1 46,0 a 23,23 0 1,1 -46,0 z M 420 745 m -23, 0 a 23,23 0 1,1 46,0 a 23,23 0 1,1 -46,0 z M 420 420 m -95, 0 a 95,95 0 1,1 190,0 a 95,95 0 1,1 -190,0 z M 420 95 m -23, 0 a 23,23 0 1,1 46,0 a 23,23 0 1,1 -46,0 z " horiz-adv-x="978" unicode="˜"/>
<glyph d="M 95 745 m -95, 0 a 95,95 0 1,1 190,0 a 95,95 0 1,1 -190,0 z M 95 420 m -23, 0 a 23,23 0 1,1 46,0 a 23,23 0 1,1 -46,0 z M 95 95 m -23, 0 a 23,23 0 1,1 46,0 a 23,23 0 1,1 -46,0 z M 420 745 m -23, 0 a 23,23 0 1,1 46,0 a 23,23 0 1,1 -46,0 z M 420 420 m -95, 0 a 95,95 0 1,1 190,0 a 95,95 0 1,1 -190,0 z M 420 95 m -23, 0 a 23,23 0 1,1 46,0 a 23,23 0 1,1 -46,0 z " horiz-adv-x="978" unicode="e"/>
<glyph d="M 95 745 m -23, 0 a 23,23 0 1,1 46,0 a 23,23 0 1,1 -46,0 z M 95 420 m -95, 0 a 95,95 0 1,1 190,0 a 95,95 0 1,1 -190,0 z M 95 95 m -23, 0 a 23,23 0 1,1 46,0 a 23,23 0 1,1 -46,0 z M 420 745 m -23, 0 a 23,23 0 1,1 46,0 a 23,23 0 1,1 -46,0 z M 420 420 m -95, 0 a 95,95 0 1,1 190,0 a 95,95 0 1,1 -190,0 z M 420 95 m -23, 0 a 23,23 0 1,1 46,0 a 23,23 0 1,1 -46,0 z " horiz-adv-x="978" unicode=":"/>
<glyph d="M 95 745 m -95, 0 a 95,95 0 1,1 190,0 a 95,95 0 1,1 -190,0 z M 95 420 m -95, 0 a 95,95 0 1,1 190,0 a 95,95 0 1,1 -190,0 z M 95 95 m -23, 0 a 23,23 0 1,1 46,0 a 23,23 0 1,1 -46,0 z M 420 745 m -23, 0 a 23,23 0 1,1 46,0 a 23,23 0 1,1 -46,0 z M 420 420 m -95, 0 a 95,95 0 1,1 190,0 a 95,95 0 1,1 -190,0 z M 420 95 m -23, 0 a 23,23 0 1,1 46,0 a 23,23 0 1,1 -46,0 z " horiz-adv-x="978" unicode="h"/>
<glyph d="M 95 745 m -23, 0 a 23,23 0 1,1 46,0 a 23,23 0 1,1 -46,0 z M 95 420 m -23, 0 a 23,23 0 1,1 46,0 a 23,23 0 1,1 -46,0 z M 95 95 m -95, 0 a 95,95 0 1,1 190,0 a 95,95 0 1,1 -190,0 z M 420 745 m -23, 0 a 23,23 0 1,1 46,0 a 23,23 0 1,1 -46,0 z M 420 420 m -95, 0 a 95,95 0 1,1 190,0 a 95,95 0 1,1 -190,0 z M 420 95 m -23, 0 a 23,23 0 1,1 46,0 a 23,23 0 1,1 -46,0 z " horiz-adv-x="978" unicode="*"/>
<glyph d="M 95 745 m -95, 0 a 95,95 0 1,1 190,0 a 95,95 0 1,1 -190,0 z M 95 420 m -23, 0 a 23,23 0 1,1 46,0 a 23,23 0 1,1 -46,0 z M 95 95 m -95, 0 a 95,95 0 1,1 190,0 a 95,95 0 1,1 -190,0 z M 420 745 m -23, 0 a 23,23 0 1,1 46,0 a 23,23 0 1,1 -46,0 z M 420 420 m -95, 0 a 95,95 0 1,1 190,0 a 95,95 0 1,1 -190,0 z M 420 95 m -23, 0 a 23,23 0 1,1 46,0 a 23,23 0 1,1 -46,0 z " horiz-adv-x="978" unicode="o"/>
<glyph d="M 95 745 m -23, 0 a 23,23 0 1,1 46,0 a 23,23 0 1,1 -46,0 z M 95 420 m -95, 0 a 95,95 0 1,1 190,0 a 95,95 0 1,1 -190,0 z M 95 95 m -95, 0 a 95,95 0 1,1 190,0 a 95,95 0 1,1 -190,0 z M 420 745 m -23, 0 a 23,23 0 1,1 46,0 a 23,23 0 1,1 -46,0 z M 420 420 m -95, 0 a 95,95 0 1,1 190,0 a 95,95 0 1,1 -190,0 z M 420 95 m -23, 0 a 23,23 0 1,1 46,0 a 23,23 0 1,1 -46,0 z " horiz-adv-x="978" unicode="!"/>
<glyph d="M 95 745 m -95, 0 a 95,95 0 1,1 190,0 a 95,95 0 1,1 -190,0 z M 95 420 m -95, 0 a 95,95 0 1,1 190,0 a 95,95 0 1,1 -190,0 z M 95 95 m -95, 0 a 95,95 0 1,1 190,0 a 95,95 0 1,1 -190,0 z M 420 745 m -23, 0 a 23,23 0 1,1 46,0 a 23,23 0 1,1 -46,0 z M 420 420 m -95, 0 a 95,95 0 1,1 190,0 a 95,95 0 1,1 -190,0 z M 420 95 m -23, 0 a 23,23 0 1,1 46,0 a 23,23 0 1,1 -46,0 z " horiz-adv-x="978" unicode="r"/>
<glyph d="M 95 745 m -23, 0 a 23,23 0 1,1 46,0 a 23,23 0 1,1 -46,0 z M 95 420 m -23, 0 a 23,23 0 1,1 46,0 a 23,23 0 1,1 -46,0 z M 95 95 m -23, 0 a 23,23 0 1,1 46,0 a 23,23 0 1,1 -46,0 z M 420 745 m -95, 0 a 95,95 0 1,1 190,0 a 95,95 0 1,1 -190,0 z M 420 420 m -95, 0 a 95,95 0 1,1 190,0 a 95,95 0 1,1 -190,0 z M 420 95 m -23, 0 a 23,23 0 1,1 46,0 a 23,23 0 1,1 -46,0 z " horiz-adv-x="978" unicode="&gt;"/>
<glyph d="M 95 745 m -95, 0 a 95,95 0 1,1 190,0 a 95,95 0 1,1 -190,0 z M 95 420 m -23, 0 a 23,23 0 1,1 46,0 a 23,23 0 1,1 -46,0 z M 95 95 m -23, 0 a 23,23 0 1,1 46,0 a 23,23 0 1,1 -46,0 z M 420 745 m -95, 0 a 95,95 0 1,1 190,0 a 95,95 0 1,1 -190,0 z M 420 420 m -95, 0 a 95,95 0 1,1 190,0 a 95,95 0 1,1 -190,0 z M 420 95 m -23, 0 a 23,23 0 1,1 46,0 a 23,23 0 1,1 -46,0 z " horiz-adv-x="978" unicode="d"/>
<glyph d="M 95 745 m -23, 0 a 23,23 0 1,1 46,0 a 23,23 0 1,1 -46,0 z M 95 420 m -95, 0 a 95,95 0 1,1 190,0 a 95,95 0 1,1 -190,0 z M 95 95 m -23, 0 a 23,23 0 1,1 46,0 a 23,23 0 1,1 -46,0 z M 420 745 m -95, 0 a 95,95 0 1,1 190,0 a 95,95 0 1,1 -190,0 z M 420 420 m -95, 0 a 95,95 0 1,1 190,0 a 95,95 0 1,1 -190,0 z M 420 95 m -23, 0 a 23,23 0 1,1 46,0 a 23,23 0 1,1 -46,0 z " horiz-adv-x="978" unicode="j"/>
<glyph d="M 95 745 m -95, 0 a 95,95 0 1,1 190,0 a 95,95 0 1,1 -190,0 z M 95 420 m -95, 0 a 95,95 0 1,1 190,0 a 95,95 0 1,1 -190,0 z M 95 95 m -23, 0 a 23,23 0 1,1 46,0 a 23,23 0 1,1 -46,0 z M 420 745 m -95, 0 a 95,95 0 1,1 190,0 a 95,95 0 1,1 -190,0 z M 420 420 m -95, 0 a 95,95 0 1,1 190,0 a 95,95 0 1,1 -190,0 z M 420 95 m -23, 0 a 23,23 0 1,1 46,0 a 23,23 0 1,1 -46,0 z " horiz-adv-x="978" unicode="g"/>
<glyph d="M 95 745 m -23, 0 a 23,23 0 1,1 46,0 a 23,23 0 1,1 -46,0 z M 95 420 m -23, 0 a 23,23 0 1,1 46,0 a 23,23 0 1,1 -46,0 z M 95 95 m -95, 0 a 95,95 0 1,1 190,0 a 95,95 0 1,1 -190,0 z M 420 745 m -95, 0 a 95,95 0 1,1 190,0 a 95,95 0 1,1 -190,0 z M 420 420 m -95, 0 a 95,95 0 1,1 190,0 a 95,95 0 1,1 -190,0 z M 420 95 m -23, 0 a 23,23 0 1,1 46,0 a 23,23 0 1,1 -46,0 z " horiz-adv-x="978" unicode="@"/>
<glyph d="M 95 745 m -95, 0 a 95,95 0 1,1 190,0 a 95,95 0 1,1 -190,0 z M 95 420 m -23, 0 a 23,23 0 1,1 46,0 a 23,23 0 1,1 -46,0 z M 95 95 m -95, 0 a 95,95 0 1,1 190,0 a 95,95 0 1,1 -190,0 z M 420 745 m -95, 0 a 95,95 0 1,1 190,0 a 95,95 0 1,1 -190,0 z M 420 420 m -95, 0 a 95,95 0 1,1 190,0 a 95,95 0 1,1 -190,0 z M 420 95 m -23, 0 a 23,23 0 1,1 46,0 a 23,23 0 1,1 -46,0 z " horiz-adv-x="978" unicode="n"/>
<glyph d="M 95 745 m -23, 0 a 23,23 0 1,1 46,0 a 23,23 0 1,1 -46,0 z M 95 420 m -95, 0 a 95,95 0 1,1 190,0 a 95,95 0 1,1 -190,0 z M 95 95 m -95, 0 a 95,95 0 1,1 190,0 a 95,95 0 1,1 -190,0 z M 420 745 m -95, 0 a 95,95 0 1,1 190,0 a 95,95 0 1,1 -190,0 z M 420 420 m -95, 0 a 95,95 0 1,1 190,0 a 95,95 0 1,1 -190,0 z M 420 95 m -23, 0 a 23,23 0 1,1 46,0 a 23,23 0 1,1 -46,0 z " horiz-adv-x="978" unicode="t"/>
<glyph d="M 95 745 m -95, 0 a 95,95 0 1,1 190,0 a 95,95 0 1,1 -190,0 z M 95 420 m -95, 0 a 95,95 0 1,1 190,0 a 95,95 0 1,1 -190,0 z M 95 95 m -95, 0 a 95,95 0 1,1 190,0 a 95,95 0 1,1 -190,0 z M 420 745 m -95, 0 a 95,95 0 1,1 190,0 a 95,95 0 1,1 -190,0 z M 420 420 m -95, 0 a 95,95 0 1,1 190,0 a 95,95 0 1,1 -190,0 z M 420 95 m -23, 0 a 23,23 0 1,1 46,0 a 23,23 0 1,1 -46,0 z " horiz-adv-x="978" unicode="q"/>
<glyph d="M 95 745 m -23, 0 a 23,23 0 1,1 46,0 a 23,23 0 1,1 -46,0 z M 95 420 m -23, 0 a 23,23 0 1,1 46,0 a 23,23 0 1,1 -46,0 z M 95 95 m -23, 0 a 23,23 0 1,1 46,0 a 23,23 0 1,1 -46,0 z M 420 745 m -23, 0 a 23,23 0 1,1 46,0 a 23,23 0 1,1 -46,0 z M 420 420 m -23, 0 a 23,23 0 1,1 46,0 a 23,23 0 1,1 -46,0 z M 420 95 m -95, 0 a 95,95 0 1,1 190,0 a 95,95 0 1,1 -190,0 z " horiz-adv-x="978" unicode="'"/>
<glyph d="M 95 745 m -95, 0 a 95,95 0 1,1 190,0 a 95,95 0 1,1 -190,0 z M 95 420 m -23, 0 a 23,23 0 1,1 46,0 a 23,23 0 1,1 -46,0 z M 95 95 m -23, 0 a 23,23 0 1,1 46,0 a 23,23 0 1,1 -46,0 z M 420 745 m -23, 0 a 23,23 0 1,1 46,0 a 23,23 0 1,1 -46,0 z M 420 420 m -23, 0 a 23,23 0 1,1 46,0 a 23,23 0 1,1 -46,0 z M 420 95 m -95, 0 a 95,95 0 1,1 190,0 a 95,95 0 1,1 -190,0 z " horiz-adv-x="978" unicode="1"/>
<glyph d="M 95 745 m -23, 0 a 23,23 0 1,1 46,0 a 23,23 0 1,1 -46,0 z M 95 420 m -95, 0 a 95,95 0 1,1 190,0 a 95,95 0 1,1 -190,0 z M 95 95 m -23, 0 a 23,23 0 1,1 46,0 a 23,23 0 1,1 -46,0 z M 420 745 m -23, 0 a 23,23 0 1,1 46,0 a 23,23 0 1,1 -46,0 z M 420 420 m -23, 0 a 23,23 0 1,1 46,0 a 23,23 0 1,1 -46,0 z M 420 95 m -95, 0 a 95,95 0 1,1 190,0 a 95,95 0 1,1 -190,0 z " horiz-adv-x="978" unicode="?"/>
<glyph d="M 95 745 m -95, 0 a 95,95 0 1,1 190,0 a 95,95 0 1,1 -190,0 z M 95 420 m -95, 0 a 95,95 0 1,1 190,0 a 95,95 0 1,1 -190,0 z M 95 95 m -23, 0 a 23,23 0 1,1 46,0 a 23,23 0 1,1 -46,0 z M 420 745 m -23, 0 a 23,23 0 1,1 46,0 a 23,23 0 1,1 -46,0 z M 420 420 m -23, 0 a 23,23 0 1,1 46,0 a 23,23 0 1,1 -46,0 z M 420 95 m -95, 0 a 95,95 0 1,1 190,0 a 95,95 0 1,1 -190,0 z " horiz-adv-x="978" unicode="2"/>
<glyph d="M 95 745 m -23, 0 a 23,23 0 1,1 46,0 a 23,23 0 1,1 -46,0 z M 95 420 m -23, 0 a 23,23 0 1,1 46,0 a 23,23 0 1,1 -46,0 z M 95 95 m -95, 0 a 95,95 0 1,1 190,0 a 95,95 0 1,1 -190,0 z M 420 745 m -23, 0 a 23,23 0 1,1 46,0 a 23,23 0 1,1 -46,0 z M 420 420 m -23, 0 a 23,23 0 1,1 46,0 a 23,23 0 1,1 -46,0 z M 420 95 m -95, 0 a 95,95 0 1,1 190,0 a 95,95 0 1,1 -190,0 z " horiz-adv-x="978" unicode="-"/>
<glyph d="M 95 745 m -95, 0 a 95,95 0 1,1 190,0 a 95,95 0 1,1 -190,0 z M 95 420 m -23, 0 a 23,23 0 1,1 46,0 a 23,23 0 1,1 -46,0 z M 95 95 m -95, 0 a 95,95 0 1,1 190,0 a 95,95 0 1,1 -190,0 z M 420 745 m -23, 0 a 23,23 0 1,1 46,0 a 23,23 0 1,1 -46,0 z M 420 420 m -23, 0 a 23,23 0 1,1 46,0 a 23,23 0 1,1 -46,0 z M 420 95 m -95, 0 a 95,95 0 1,1 190,0 a 95,95 0 1,1 -190,0 z " horiz-adv-x="978" unicode="u"/>
<glyph d="M 95 745 m -23, 0 a 23,23 0 1,1 46,0 a 23,23 0 1,1 -46,0 z M 95 420 m -95, 0 a 95,95 0 1,1 190,0 a 95,95 0 1,1 -190,0 z M 95 95 m -95, 0 a 95,95 0 1,1 190,0 a 95,95 0 1,1 -190,0 z M 420 745 m -23, 0 a 23,23 0 1,1 46,0 a 23,23 0 1,1 -46,0 z M 420 420 m -23, 0 a 23,23 0 1,1 46,0 a 23,23 0 1,1 -46,0 z M 420 95 m -95, 0 a 95,95 0 1,1 190,0 a 95,95 0 1,1 -190,0 z " horiz-adv-x="978" unicode="("/>
<glyph d="M 95 745 m -95, 0 a 95,95 0 1,1 190,0 a 95,95 0 1,1 -190,0 z M 95 420 m -95, 0 a 95,95 0 1,1 190,0 a 95,95 0 1,1 -190,0 z M 95 95 m -95, 0 a 95,95 0 1,1 190,0 a 95,95 0 1,1 -190,0 z M 420 745 m -23, 0 a 23,23 0 1,1 46,0 a 23,23 0 1,1 -46,0 z M 420 420 m -23, 0 a 23,23 0 1,1 46,0 a 23,23 0 1,1 -46,0 z M 420 95 m -95, 0 a 95,95 0 1,1 190,0 a 95,95 0 1,1 -190,0 z " horiz-adv-x="978" unicode="v"/>
<glyph d="M 95 745 m -23, 0 a 23,23 0 1,1 46,0 a 23,23 0 1,1 -46,0 z M 95 420 m -23, 0 a 23,23 0 1,1 46,0 a 23,23 0 1,1 -46,0 z M 95 95 m -23, 0 a 23,23 0 1,1 46,0 a 23,23 0 1,1 -46,0 z M 420 745 m -95, 0 a 95,95 0 1,1 190,0 a 95,95 0 1,1 -190,0 z M 420 420 m -23, 0 a 23,23 0 1,1 46,0 a 23,23 0 1,1 -46,0 z M 420 95 m -95, 0 a 95,95 0 1,1 190,0 a 95,95 0 1,1 -190,0 z " horiz-adv-x="978" unicode="¨"/>
<glyph d="M 95 745 m -95, 0 a 95,95 0 1,1 190,0 a 95,95 0 1,1 -190,0 z M 95 420 m -23, 0 a 23,23 0 1,1 46,0 a 23,23 0 1,1 -46,0 z M 95 95 m -23, 0 a 23,23 0 1,1 46,0 a 23,23 0 1,1 -46,0 z M 420 745 m -95, 0 a 95,95 0 1,1 190,0 a 95,95 0 1,1 -190,0 z M 420 420 m -23, 0 a 23,23 0 1,1 46,0 a 23,23 0 1,1 -46,0 z M 420 95 m -95, 0 a 95,95 0 1,1 190,0 a 95,95 0 1,1 -190,0 z " horiz-adv-x="978" unicode="3"/>
<glyph d="M 95 745 m -23, 0 a 23,23 0 1,1 46,0 a 23,23 0 1,1 -46,0 z M 95 420 m -95, 0 a 95,95 0 1,1 190,0 a 95,95 0 1,1 -190,0 z M 95 95 m -23, 0 a 23,23 0 1,1 46,0 a 23,23 0 1,1 -46,0 z M 420 745 m -95, 0 a 95,95 0 1,1 190,0 a 95,95 0 1,1 -190,0 z M 420 420 m -23, 0 a 23,23 0 1,1 46,0 a 23,23 0 1,1 -46,0 z M 420 95 m -95, 0 a 95,95 0 1,1 190,0 a 95,95 0 1,1 -190,0 z " horiz-adv-x="978" unicode="9"/>
<glyph d="M 95 745 m -95, 0 a 95,95 0 1,1 190,0 a 95,95 0 1,1 -190,0 z M 95 420 m -95, 0 a 95,95 0 1,1 190,0 a 95,95 0 1,1 -190,0 z M 95 95 m -23, 0 a 23,23 0 1,1 46,0 a 23,23 0 1,1 -46,0 z M 420 745 m -95, 0 a 95,95 0 1,1 190,0 a 95,95 0 1,1 -190,0 z M 420 420 m -23, 0 a 23,23 0 1,1 46,0 a 23,23 0 1,1 -46,0 z M 420 95 m -95, 0 a 95,95 0 1,1 190,0 a 95,95 0 1,1 -190,0 z " horiz-adv-x="978" unicode="6"/>
<glyph d="M 95 745 m -23, 0 a 23,23 0 1,1 46,0 a 23,23 0 1,1 -46,0 z M 95 420 m -23, 0 a 23,23 0 1,1 46,0 a 23,23 0 1,1 -46,0 z M 95 95 m -95, 0 a 95,95 0 1,1 190,0 a 95,95 0 1,1 -190,0 z M 420 745 m -95, 0 a 95,95 0 1,1 190,0 a 95,95 0 1,1 -190,0 z M 420 420 m -23, 0 a 23,23 0 1,1 46,0 a 23,23 0 1,1 -46,0 z M 420 95 m -95, 0 a 95,95 0 1,1 190,0 a 95,95 0 1,1 -190,0 z " horiz-adv-x="978" unicode="#"/>
<glyph d="M 95 745 m -95, 0 a 95,95 0 1,1 190,0 a 95,95 0 1,1 -190,0 z M 95 420 m -23, 0 a 23,23 0 1,1 46,0 a 23,23 0 1,1 -46,0 z M 95 95 m -95, 0 a 95,95 0 1,1 190,0 a 95,95 0 1,1 -190,0 z M 420 745 m -95, 0 a 95,95 0 1,1 190,0 a 95,95 0 1,1 -190,0 z M 420 420 m -23, 0 a 23,23 0 1,1 46,0 a 23,23 0 1,1 -46,0 z M 420 95 m -95, 0 a 95,95 0 1,1 190,0 a 95,95 0 1,1 -190,0 z " horiz-adv-x="978" unicode="x"/>
<glyph d="M 95 745 m -23, 0 a 23,23 0 1,1 46,0 a 23,23 0 1,1 -46,0 z M 95 420 m -95, 0 a 95,95 0 1,1 190,0 a 95,95 0 1,1 -190,0 z M 95 95 m -95, 0 a 95,95 0 1,1 190,0 a 95,95 0 1,1 -190,0 z M 420 745 m -95, 0 a 95,95 0 1,1 190,0 a 95,95 0 1,1 -190,0 z M 420 420 m -23, 0 a 23,23 0 1,1 46,0 a 23,23 0 1,1 -46,0 z M 420 95 m -95, 0 a 95,95 0 1,1 190,0 a 95,95 0 1,1 -190,0 z " horiz-adv-x="978" unicode="è"/>
<glyph d="M 95 745 m -95, 0 a 95,95 0 1,1 190,0 a 95,95 0 1,1 -190,0 z M 95 420 m -95, 0 a 95,95 0 1,1 190,0 a 95,95 0 1,1 -190,0 z M 95 95 m -95, 0 a 95,95 0 1,1 190,0 a 95,95 0 1,1 -190,0 z M 420 745 m -95, 0 a 95,95 0 1,1 190,0 a 95,95 0 1,1 -190,0 z M 420 420 m -23, 0 a 23,23 0 1,1 46,0 a 23,23 0 1,1 -46,0 z M 420 95 m -95, 0 a 95,95 0 1,1 190,0 a 95,95 0 1,1 -190,0 z " horiz-adv-x="978" unicode="ç"/>
<glyph d="M 95 745 m -23, 0 a 23,23 0 1,1 46,0 a 23,23 0 1,1 -46,0 z M 95 420 m -23, 0 a 23,23 0 1,1 46,0 a 23,23 0 1,1 -46,0 z M 95 95 m -23, 0 a 23,23 0 1,1 46,0 a 23,23 0 1,1 -46,0 z M 420 745 m -23, 0 a 23,23 0 1,1 46,0 a 23,23 0 1,1 -46,0 z M 420 420 m -95, 0 a 95,95 0 1,1 190,0 a 95,95 0 1,1 -190,0 z M 420 95 m -95, 0 a 95,95 0 1,1 190,0 a 95,95 0 1,1 -190,0 z " horiz-adv-x="978" unicode="&lt;"/>
<glyph d="M 95 745 m -95, 0 a 95,95 0 1,1 190,0 a 95,95 0 1,1 -190,0 z M 95 420 m -23, 0 a 23,23 0 1,1 46,0 a 23,23 0 1,1 -46,0 z M 95 95 m -23, 0 a 23,23 0 1,1 46,0 a 23,23 0 1,1 -46,0 z M 420 745 m -23, 0 a 23,23 0 1,1 46,0 a 23,23 0 1,1 -46,0 z M 420 420 m -95, 0 a 95,95 0 1,1 190,0 a 95,95 0 1,1 -190,0 z M 420 95 m -95, 0 a 95,95 0 1,1 190,0 a 95,95 0 1,1 -190,0 z " horiz-adv-x="978" unicode="5"/>
<glyph d="M 95 745 m -23, 0 a 23,23 0 1,1 46,0 a 23,23 0 1,1 -46,0 z M 95 420 m -95, 0 a 95,95 0 1,1 190,0 a 95,95 0 1,1 -190,0 z M 95 95 m -23, 0 a 23,23 0 1,1 46,0 a 23,23 0 1,1 -46,0 z M 420 745 m -23, 0 a 23,23 0 1,1 46,0 a 23,23 0 1,1 -46,0 z M 420 420 m -95, 0 a 95,95 0 1,1 190,0 a 95,95 0 1,1 -190,0 z M 420 95 m -95, 0 a 95,95 0 1,1 190,0 a 95,95 0 1,1 -190,0 z " horiz-adv-x="978" unicode="/"/>
<glyph d="M 95 745 m -95, 0 a 95,95 0 1,1 190,0 a 95,95 0 1,1 -190,0 z M 95 420 m -95, 0 a 95,95 0 1,1 190,0 a 95,95 0 1,1 -190,0 z M 95 95 m -23, 0 a 23,23 0 1,1 46,0 a 23,23 0 1,1 -46,0 z M 420 745 m -23, 0 a 23,23 0 1,1 46,0 a 23,23 0 1,1 -46,0 z M 420 420 m -95, 0 a 95,95 0 1,1 190,0 a 95,95 0 1,1 -190,0 z M 420 95 m -95, 0 a 95,95 0 1,1 190,0 a 95,95 0 1,1 -190,0 z " horiz-adv-x="978" unicode="8"/>
<glyph d="M 95 745 m -23, 0 a 23,23 0 1,1 46,0 a 23,23 0 1,1 -46,0 z M 95 420 m -23, 0 a 23,23 0 1,1 46,0 a 23,23 0 1,1 -46,0 z M 95 95 m -95, 0 a 95,95 0 1,1 190,0 a 95,95 0 1,1 -190,0 z M 420 745 m -23, 0 a 23,23 0 1,1 46,0 a 23,23 0 1,1 -46,0 z M 420 420 m -95, 0 a 95,95 0 1,1 190,0 a 95,95 0 1,1 -190,0 z M 420 95 m -95, 0 a 95,95 0 1,1 190,0 a 95,95 0 1,1 -190,0 z " horiz-adv-x="978" unicode=")"/>
<glyph d="M 95 745 m -95, 0 a 95,95 0 1,1 190,0 a 95,95 0 1,1 -190,0 z M 95 420 m -23, 0 a 23,23 0 1,1 46,0 a 23,23 0 1,1 -46,0 z M 95 95 m -95, 0 a 95,95 0 1,1 190,0 a 95,95 0 1,1 -190,0 z M 420 745 m -23, 0 a 23,23 0 1,1 46,0 a 23,23 0 1,1 -46,0 z M 420 420 m -95, 0 a 95,95 0 1,1 190,0 a 95,95 0 1,1 -190,0 z M 420 95 m -95, 0 a 95,95 0 1,1 190,0 a 95,95 0 1,1 -190,0 z " horiz-adv-x="978" unicode="z"/>
<glyph d="M 95 745 m -23, 0 a 23,23 0 1,1 46,0 a 23,23 0 1,1 -46,0 z M 95 420 m -95, 0 a 95,95 0 1,1 190,0 a 95,95 0 1,1 -190,0 z M 95 95 m -95, 0 a 95,95 0 1,1 190,0 a 95,95 0 1,1 -190,0 z M 420 745 m -23, 0 a 23,23 0 1,1 46,0 a 23,23 0 1,1 -46,0 z M 420 420 m -95, 0 a 95,95 0 1,1 190,0 a 95,95 0 1,1 -190,0 z M 420 95 m -95, 0 a 95,95 0 1,1 190,0 a 95,95 0 1,1 -190,0 z " horiz-adv-x="978" unicode="&quot;"/>
<glyph d="M 95 745 m -95, 0 a 95,95 0 1,1 190,0 a 95,95 0 1,1 -190,0 z M 95 420 m -95, 0 a 95,95 0 1,1 190,0 a 95,95 0 1,1 -190,0 z M 95 95 m -95, 0 a 95,95 0 1,1 190,0 a 95,95 0 1,1 -190,0 z M 420 745 m -23, 0 a 23,23 0 1,1 46,0 a 23,23 0 1,1 -46,0 z M 420 420 m -95, 0 a 95,95 0 1,1 190,0 a 95,95 0 1,1 -190,0 z M 420 95 m -95, 0 a 95,95 0 1,1 190,0 a 95,95 0 1,1 -190,0 z " horiz-adv-x="978" unicode="à"/>
<glyph d="M 95 745 m -23, 0 a 23,23 0 1,1 46,0 a 23,23 0 1,1 -46,0 z M 95 420 m -23, 0 a 23,23 0 1,1 46,0 a 23,23 0 1,1 -46,0 z M 95 95 m -23, 0 a 23,23 0 1,1 46,0 a 23,23 0 1,1 -46,0 z M 420 745 m -95, 0 a 95,95 0 1,1 190,0 a 95,95 0 1,1 -190,0 z M 420 420 m -95, 0 a 95,95 0 1,1 190,0 a 95,95 0 1,1 -190,0 z M 420 95 m -95, 0 a 95,95 0 1,1 190,0 a 95,95 0 1,1 -190,0 z " horiz-adv-x="978" unicode="_"/>
<glyph d="M 95 745 m -95, 0 a 95,95 0 1,1 190,0 a 95,95 0 1,1 -190,0 z M 95 420 m -23, 0 a 23,23 0 1,1 46,0 a 23,23 0 1,1 -46,0 z M 95 95 m -23, 0 a 23,23 0 1,1 46,0 a 23,23 0 1,1 -46,0 z M 420 745 m -95, 0 a 95,95 0 1,1 190,0 a 95,95 0 1,1 -190,0 z M 420 420 m -95, 0 a 95,95 0 1,1 190,0 a 95,95 0 1,1 -190,0 z M 420 95 m -95, 0 a 95,95 0 1,1 190,0 a 95,95 0 1,1 -190,0 z " horiz-adv-x="978" unicode="4"/>
<glyph d="M 95 745 m -23, 0 a 23,23 0 1,1 46,0 a 23,23 0 1,1 -46,0 z M 95 420 m -95, 0 a 95,95 0 1,1 190,0 a 95,95 0 1,1 -190,0 z M 95 95 m -23, 0 a 23,23 0 1,1 46,0 a 23,23 0 1,1 -46,0 z M 420 745 m -95, 0 a 95,95 0 1,1 190,0 a 95,95 0 1,1 -190,0 z M 420 420 m -95, 0 a 95,95 0 1,1 190,0 a 95,95 0 1,1 -190,0 z M 420 95 m -95, 0 a 95,95 0 1,1 190,0 a 95,95 0 1,1 -190,0 z " horiz-adv-x="978" unicode="w"/>
<glyph d="M 95 745 m -95, 0 a 95,95 0 1,1 190,0 a 95,95 0 1,1 -190,0 z M 95 420 m -95, 0 a 95,95 0 1,1 190,0 a 95,95 0 1,1 -190,0 z M 95 95 m -23, 0 a 23,23 0 1,1 46,0 a 23,23 0 1,1 -46,0 z M 420 745 m -95, 0 a 95,95 0 1,1 190,0 a 95,95 0 1,1 -190,0 z M 420 420 m -95, 0 a 95,95 0 1,1 190,0 a 95,95 0 1,1 -190,0 z M 420 95 m -95, 0 a 95,95 0 1,1 190,0 a 95,95 0 1,1 -190,0 z " horiz-adv-x="978" unicode="7"/>
<glyph d="M 95 745 m -23, 0 a 23,23 0 1,1 46,0 a 23,23 0 1,1 -46,0 z M 95 420 m -23, 0 a 23,23 0 1,1 46,0 a 23,23 0 1,1 -46,0 z M 95 95 m -95, 0 a 95,95 0 1,1 190,0 a 95,95 0 1,1 -190,0 z M 420 745 m -95, 0 a 95,95 0 1,1 190,0 a 95,95 0 1,1 -190,0 z M 420 420 m -95, 0 a 95,95 0 1,1 190,0 a 95,95 0 1,1 -190,0 z M 420 95 m -95, 0 a 95,95 0 1,1 190,0 a 95,95 0 1,1 -190,0 z " horiz-adv-x="978" unicode="0"/>
<glyph d="M 95 745 m -95, 0 a 95,95 0 1,1 190,0 a 95,95 0 1,1 -190,0 z M 95 420 m -23, 0 a 23,23 0 1,1 46,0 a 23,23 0 1,1 -46,0 z M 95 95 m -95, 0 a 95,95 0 1,1 190,0 a 95,95 0 1,1 -190,0 z M 420 745 m -95, 0 a 95,95 0 1,1 190,0 a 95,95 0 1,1 -190,0 z M 420 420 m -95, 0 a 95,95 0 1,1 190,0 a 95,95 0 1,1 -190,0 z M 420 95 m -95, 0 a 95,95 0 1,1 190,0 a 95,95 0 1,1 -190,0 z " horiz-adv-x="978" unicode="y"/>
<glyph d="M 95 745 m -23, 0 a 23,23 0 1,1 46,0 a 23,23 0 1,1 -46,0 z M 95 420 m -95, 0 a 95,95 0 1,1 190,0 a 95,95 0 1,1 -190,0 z M 95 95 m -95, 0 a 95,95 0 1,1 190,0 a 95,95 0 1,1 -190,0 z M 420 745 m -95, 0 a 95,95 0 1,1 190,0 a 95,95 0 1,1 -190,0 z M 420 420 m -95, 0 a 95,95 0 1,1 190,0 a 95,95 0 1,1 -190,0 z M 420 95 m -95, 0 a 95,95 0 1,1 190,0 a 95,95 0 1,1 -190,0 z " horiz-adv-x="978" unicode="ù"/>
<glyph d="M 95 745 m -95, 0 a 95,95 0 1,1 190,0 a 95,95 0 1,1 -190,0 z M 95 420 m -95, 0 a 95,95 0 1,1 190,0 a 95,95 0 1,1 -190,0 z M 95 95 m -95, 0 a 95,95 0 1,1 190,0 a 95,95 0 1,1 -190,0 z M 420 745 m -95, 0 a 95,95 0 1,1 190,0 a 95,95 0 1,1 -190,0 z M 420 420 m -95, 0 a 95,95 0 1,1 190,0 a 95,95 0 1,1 -190,0 z M 420 95 m -95, 0 a 95,95 0 1,1 190,0 a 95,95 0 1,1 -190,0 z " horiz-adv-x="978" unicode="é"/>
</font>
</defs>
</svg>
